<svg width="46" height="46" viewBox="0 0 46 46" fill="none" xmlns="http://www.w3.org/2000/svg"><path d="M46 24.528H0v8.91h46v-8.91zm0 10.74H0v8.909h46v-8.91zM25.45 9.123c-1.53.695-2.628 2.262-2.628 4.055 0 2.45 2.009 4.45 4.45 4.45 2.44 0 4.45-2.009 4.45-4.45 0-2.44-1.972-4.45-4.45-4.45-1.164-3.501-4.75-6.533-4.929-6.684-.404-.328-.986-.29-1.314.113-.329.404-.291.986.112 1.314 1.024.836 3.427 3.249 4.31 5.652z" fill="#595959"/><path d="M39.175 8.907l-5.99 2.121c.254.695.404 1.427.404 2.188 0 3.464-2.807 6.318-6.318 6.318-2.778 0-5.144-1.821-5.989-4.31L0 22.67h46c0-5.04-2.478-9.744-6.825-13.762z" fill="#595959"/></svg>