<svg width="58" height="58" viewBox="0 0 58 58" fill="none" xmlns="http://www.w3.org/2000/svg"><circle cx="28.547" cy="28.548" r="20.5" transform="rotate(124.963 28.547 28.548)" fill="#fff"/><g clip-path="url(#clip0)"><path d="M34.184 33.159a10.12 10.12 0 01-3.004-1.14.892.892 0 00-.928.03l-2.312 1.524a13.387 13.387 0 01-4.55-6.92l2.313-1.527a.89.89 0 00.396-.839 10.118 10.118 0 01.147-3.21.886.886 0 00-.69-1.05l-3.047-.631a.889.889 0 00-1.05.69c-1.692 8.173 3.561 16.169 11.734 17.86a.886.886 0 001.051-.69l.63-3.047a.886.886 0 00-.69-1.05z" fill="#FFBC2D"/></g><defs><clipPath id="clip0"><path fill="#fff" transform="rotate(11.694 -83.002 115.261)" d="M0 0h16v16H0z"/></clipPath></defs></svg>