<svg width="20" height="18" viewBox="0 0 20 18" fill="none" xmlns="http://www.w3.org/2000/svg"><path d="M7.955 17.833c1.35 0 2.444-.944 2.444-2.108 0-1.165-1.094-2.108-2.444-2.108-1.35 0-2.444.943-2.444 2.108 0 1.164 1.094 2.108 2.444 2.108zm7.132-4.216c-1.35 0-2.443.943-2.443 2.108 0 1.164 1.094 2.108 2.443 2.108 1.35 0 2.444-.944 2.444-2.108 0-1.165-1.094-2.108-2.444-2.108zm4.165-2.152H6.509l-.25-1.248h10.474c.308.001.585-.161.698-.408l2.494-5.42c.152-.332-.037-.707-.422-.838a.854.854 0 00-.276-.045H4.963L4.364.538C4.303.224 3.985-.004 3.616 0H.748C.335 0 0 .29 0 .645c0 .357.335.646.748.646h2.245l2.144 10.927c.062.314.38.542.748.537h13.367c.413 0 .748-.288.748-.645 0-.356-.335-.645-.748-.645z" fill="#fff"/></svg>