<svg width="46" height="46" viewBox="0 0 46 46" fill="none" xmlns="http://www.w3.org/2000/svg"><g clip-path="url(#clip0)" fill="#595959"><path d="M41.555 26.428a4.347 4.347 0 00-3.448-1.683h-4.056v-3.093H3.517v9.187c0 5.16 2.593 9.726 6.543 12.466H3.528V46H34.04v-2.695h-6.532a15.285 15.285 0 003.593-3.491h2.959a7.523 7.523 0 007.309-5.707l.981-3.927a4.347 4.347 0 00-.795-3.752zm-1.82 3.099l-.981 3.926a4.832 4.832 0 01-4.694 3.665h-1.372a15.073 15.073 0 001.363-6.28v-3.397h4.056c.52 0 1.003.235 1.323.646.32.41.432.935.306 1.44zM18.8 10.627a4.446 4.446 0 00-4.441 4.441v3.093h2.695v-3.093c0-.962.783-1.745 1.746-1.745h12.372c5.86 0 10.628-4.768 10.628-10.628V0h-2.696v2.695c0 4.374-3.558 7.932-7.932 7.932H18.8z"/><path d="M10.867 15.466c0-4.374 3.559-7.932 7.933-7.932h12.372a4.446 4.446 0 004.441-4.441V0h-2.695v3.093c0 .963-.783 1.746-1.746 1.746H18.8c-5.86 0-10.628 4.767-10.628 10.627v2.695h2.695v-2.695z"/></g><defs><clipPath id="clip0"><path fill="#fff" d="M0 0h46v46H0z"/></clipPath></defs></svg>