<svg width="46" height="46" viewBox="0 0 46 46" fill="none" xmlns="http://www.w3.org/2000/svg"><path d="M31.625 26.594a1.438 1.438 0 100-2.875 1.438 1.438 0 000 2.875zm4.313 2.156a1.438 1.438 0 100-2.875 1.438 1.438 0 000 2.875zm-1.468-3.896a2.85 2.85 0 011.468-.416c.16 0 .314.022.468.047l-3.343-3.344-1.168 1.168a2.86 2.86 0 012.574 2.545z" fill="#595959"/><path d="M42.406 23.08v.762a2.755 2.755 0 01-2.751 2.752c-.35 0-.689-.07-1.004-.194.097.289.161.592.161.913a2.878 2.878 0 01-2.874 2.875 2.868 2.868 0 01-2.845-2.573 2.85 2.85 0 01-1.468.416 2.85 2.85 0 01-1.468-.416 2.868 2.868 0 01-2.845 2.573 2.864 2.864 0 01-2.06-.877l-.863.575c-.296.197-.64.302-.997.302h-.988a.358.358 0 00-.348.272l-.31 1.242c-.2.801-.918 1.36-1.744 1.36H18.81a1.795 1.795 0 01-1.743-1.36l-.31-1.243a.358.358 0 00-.349-.271h-.15a.365.365 0 00-.254.104l-.805.806a1.806 1.806 0 01-1.27.527h-.632a1.798 1.798 0 01-1.797-1.797.36.36 0 00-.36-.36h-.718a1.799 1.799 0 01-1.797-1.796.36.36 0 00-.36-.36 1.798 1.798 0 01-1.796-1.796v-.752c0-.356.105-.7.302-.997l1.086-1.63c-.068-.071-.14-.14-.207-.212l-.866-.939c-2.988 1.422-4.628 3.148-4.628 4.889 0 3.818 8.376 7.906 20.844 7.906 12.468 0 20.844-4.088 20.844-7.906 0-1.093-.654-2.041-1.438-2.794z" fill="#595959"/><path d="M8.706 20.95a15.335 15.335 0 005.678 3.868 5.864 5.864 0 001.428-3.846c0-.913-.215-1.827-.623-2.645l-.738-1.475 1.286-.643.512 1.022a7.962 7.962 0 004.309-1.563l.23-.173a2.022 2.022 0 011.205-.401c.924 0 1.725.626 1.95 1.522l.328 1.317c.11.442.166.896.166 1.352v.826a4.208 4.208 0 01-2.338 3.784 5.166 5.166 0 01-2.299.543 5.175 5.175 0 01-2.992-.97 7.236 7.236 0 01-.977 1.833c1.332.375 2.72.574 4.124.574 4.09 0 7.934-1.593 10.826-4.484l3.212-3.212 1.016 1.017-.93.929 4.646 4.647a1.315 1.315 0 002.243-.93V12.096a1.316 1.316 0 00-2.243-.93l-4.418 4.418a11.07 11.07 0 004.46.947h.764v1.438h-.764c-2.92 0-5.762-1.03-8.005-2.898a18.545 18.545 0 00-11.848-4.29c-2.86 0-5.721.676-8.278 1.954l-4.821 2.411a1.416 1.416 0 00-.408 2.23l3.299 3.573zm20.763-4.419h1.437v2.875H29.47v-2.875zM27.312 23h-1.437v-2.875h1.438V23zm-2.156-9.344h1.438v2.875h-1.438v-2.875zM17.97 12.22h1.437v2.875H17.97V12.22zm-8.415 2.664l1.017-1.016.57.57.57-.57 1.016 1.016-.57.57.57.57-1.016 1.016-.57-.57-.57.57-1.017-1.016.57-.57-.57-.57z" fill="#595959"/><path d="M30.906 9.761a1.851 1.851 0 00-1.855-1.855 9.74 9.74 0 00-4.333 1.023l-1.715.857c2.855.6 5.557 1.821 7.903 3.588V9.761zM17.183 21.916c1.093 1.093 2.89 1.384 4.273.693A2.778 2.778 0 0023 20.111v-.826c0-.338-.042-.675-.123-1.002l-.33-1.318c-.093-.375-.588-.55-.898-.32l-.23.174a9.41 9.41 0 01-4.564 1.802c.162.479.28.973.34 1.475a7.964 7.964 0 004.08-1.552l.863 1.15a9.407 9.407 0 01-4.915 1.84c-.01.128-.024.256-.04.382zM6.662 32.286c1.234 3.238 8.215 5.808 16.338 5.808 8.123 0 15.104-2.57 16.338-5.808C35.298 34.1 29.52 35.22 23 35.22c-6.52 0-12.298-1.12-16.338-2.933zm13.293-4.973A16.8 16.8 0 018.91 23.15l-.942 1.414a.357.357 0 00-.06.199v.752a.36.36 0 00.359.359c.99 0 1.796.806 1.796 1.797 0 .197.162.36.36.36h.719c.99 0 1.796.805 1.796 1.796 0 .198.162.36.36.36h.632a.365.365 0 00.254-.105l.806-.806a1.806 1.806 0 011.27-.527h.15c.825 0 1.542.56 1.742 1.36l.31 1.243a.36.36 0 00.35.272h1.191c.165 0 .31-.111.349-.272l.31-1.242c.2-.802.917-1.361 1.743-1.361h.988c.072 0 .14-.02.2-.06l.954-.637a2.869 2.869 0 01-.108-.74c0-.217.028-.427.074-.63a16.812 16.812 0 01-4.557.63zm8.832-2.517l-.052.032c.015.01.03.016.046.026l.006-.058zm-1.474 3.954a1.438 1.438 0 100-2.875 1.438 1.438 0 000 2.875z" fill="#595959"/></svg>