<svg width="46" height="46" viewBox="0 0 46 46" fill="none" xmlns="http://www.w3.org/2000/svg"><g clip-path="url(#clip0)" fill="#000"><path d="M39.768 19.375a1.643 1.643 0 01-1.16 2.804H22.022c.099-.263.151-.541.156-.822v-2.464h16.428c.436-.001.854.172 1.16.482zm-22.354 2.804h-1.807v-2.377a.891.891 0 01.678-.898.821.821 0 01.965.81v1.555c0 .31.056.619.164.91zm24.479-8.215a1.643 1.643 0 110 3.286H22.178v-2.464c0-.454.368-.822.822-.822h18.893zM20.536 6.571a.82.82 0 01.821-.821h4.929c.453 0 .821.368.821.821v2.465h-6.571V6.57z"/><path d="M10.678 10.679h26.286c.907 0 1.643.735 1.643 1.642H23a2.464 2.464 0 00-2.464 2.465v6.571a.821.821 0 01-.966.81.891.891 0 01-.677-.898v-1.555a2.465 2.465 0 00-2.875-2.43 2.532 2.532 0 00-2.054 2.518V23a.821.821 0 01-.965.81.891.891 0 01-.678-.898v-8.126a2.464 2.464 0 00-2.464-2.465h-.821c0-.907.735-1.642 1.643-1.642z"/><path d="M4.59 16.768a1.643 1.643 0 011.16-2.804h4.107c.454 0 .822.368.822.822v2.464H5.75a1.63 1.63 0 01-1.16-.482zM.822 20.536c0-.908.735-1.643 1.642-1.643h8.215v3.286H2.464a1.643 1.643 0 01-1.642-1.643zm2.464 4.928c0-.907.735-1.642 1.642-1.642h5.915a2.435 2.435 0 004.609 0h25.62a1.643 1.643 0 110 3.285H4.927a1.643 1.643 0 01-1.642-1.643zm1.642 4.929c0-.908.736-1.643 1.643-1.643h36.143a1.643 1.643 0 010 3.286H6.571a1.643 1.643 0 01-1.643-1.643zm38.202 9.295a.821.821 0 01-.778.562H3.648a.821.821 0 01-.779-.562l-.908-2.724h42.078l-.908 2.724zM46 34.5a.821.821 0 01-.821.821H.82A.821.821 0 010 34.5v-.822h46v.822z"/></g><defs><clipPath id="clip0"><path fill="#fff" d="M0 0h46v46H0z"/></clipPath></defs></svg>