<svg width="46" height="46" viewBox="0 0 46 46" fill="none" xmlns="http://www.w3.org/2000/svg"><g clip-path="url(#clip0)" fill="#595959"><path d="M10.83 12.62a5.753 5.753 0 00-.783 5.2 16.41 16.41 0 01.662.951c.116.178.23.355.338.533.111-.007.227-.012.346-.012.346.001.69.03 1.032.086.112.018.219.053.33.076.222.044.442.1.66.166.127.042.247.099.371.148.19.075.379.149.56.24.127.065.245.14.367.213.168.098.334.197.492.31.12.085.23.178.344.27.146.12.29.242.427.374.106.104.206.213.306.324.126.14.247.282.36.431a6.501 6.501 0 01.549.857c.072.134.14.27.204.41.033.073.076.14.107.215h1.111c-.008-.054-.008-.106-.016-.16a8.842 8.842 0 01-.077-.793l-.006-.18a8.17 8.17 0 01.02-.886l.004-.052a8.02 8.02 0 011.09-3.406c.059-.103.132-.196.195-.295.043-.067.088-.133.133-.2a9.86 9.86 0 01.488-.665c.055-.069.113-.137.17-.206.184-.216.373-.426.572-.628.03-.032.056-.066.088-.098a5.78 5.78 0 00-4.94-5.554l.003-.06a3.3 3.3 0 013.296-3.297.824.824 0 100-1.648 4.942 4.942 0 00-4.12 2.217 4.941 4.941 0 00-4.12-2.217.824.824 0 100 1.648 3.3 3.3 0 013.296 3.296l.002.058a5.752 5.752 0 00-3.862 2.334zm9.327 9.372l-.002.078c.002.294.023.588.061.88l.026.168c.015.097.042.197.06.294H21.9c.005-.014.013-.026.019-.04a9.103 9.103 0 01.537-1.122 9 9 0 015.374-4.248l.017-.005c.383-.11.772-.194 1.166-.252.13-.19.261-.38.374-.564l.086-.148a9.234 9.234 0 00.425-.812 6.775 6.775 0 00.306-.81 5.13 5.13 0 00.116-.467 2.938 2.938 0 00-.264-2.129 20.092 20.092 0 00-7.403 3.988 9.174 9.174 0 00-1.352 1.582l-.053.08a6.49 6.49 0 00-1.09 3.527zm9.67-2.663c-.111.007-.223.01-.332.023-.26.032-.52.077-.775.136-.09.02-.184.035-.273.059a7.4 7.4 0 00-.81.268c-.06.024-.125.043-.186.068a7.395 7.395 0 00-.847.427c-.028.017-.057.029-.085.045a7.392 7.392 0 00-2.815 3.057H36.99a7.32 7.32 0 00-.575-.964c-.027-.04-.06-.073-.088-.112a7.375 7.375 0 00-.631-.758c-.036-.038-.076-.071-.114-.109a7.506 7.506 0 00-.731-.643 7.338 7.338 0 00-1.853-1.03c-.049-.02-.098-.037-.147-.054a7.495 7.495 0 00-.91-.26c-.063-.014-.126-.029-.19-.04a7.554 7.554 0 00-.857-.111c-.096-.007-.192-.017-.29-.02a7.243 7.243 0 00-.777.018zm8.025 2.301c.163.243.315.494.455.754.024.044.05.086.072.13.145.278.275.564.39.856.007.014.015.028.02.042h1.85a11.145 11.145 0 002.003-4.425 5.544 5.544 0 00-6.175 1.033 9 9 0 011.339 1.54c.016.024.03.048.046.07zm-29.042.056a3.9 3.9 0 00-.241.162c-.1.069-.197.14-.29.216a5.037 5.037 0 00-.483.45 4.824 4.824 0 00-.61.795c-.021.034-.038.07-.058.103h8.525c-.045-.076-.087-.155-.136-.229-.046-.07-.091-.142-.141-.21a4.958 4.958 0 00-.356-.425c-.038-.042-.072-.087-.111-.127a5.026 5.026 0 00-.54-.472c-.048-.036-.1-.066-.15-.1a5.005 5.005 0 00-.458-.29c-.073-.04-.15-.075-.224-.112a5.01 5.01 0 00-.69-.276c-.16-.05-.323-.09-.488-.123-.076-.015-.15-.034-.226-.046a4.075 4.075 0 00-1.224-.029c-.077.01-.157.018-.223.028a4.933 4.933 0 00-.69.15l-.031.011c-.199.06-.393.134-.582.219-.064.029-.125.062-.188.094a4.908 4.908 0 00-.386.21zM.28 25.742a28.252 28.252 0 0011.359 13.326h10.467a.824.824 0 110 1.649h-9.888v.917c0 .404.328.73.731.73h19.962a.73.73 0 00.73-.73v-.917h-1.647a.824.824 0 110-1.648h2.226a28.26 28.26 0 0011.359-13.324l.28-.685H0l.28.682zm5.005-2.33c.04-.1.092-.195.138-.293.03-.065.059-.13.09-.193.143-.284.305-.558.486-.818.012-.017.025-.031.037-.047.177-.245.37-.477.58-.695.039-.042.078-.084.119-.124a6.61 6.61 0 012.435-1.547c.047-.017.09-.042.139-.058-.014-.02-.027-.045-.04-.065-.05-.075-.098-.143-.147-.214-.159-.23-.308-.439-.452-.626-1.928-2.512-3.591-2.753-4.24-2.78a7.881 7.881 0 00-.75 7.46h1.605zM45.439 6.975l-1.208-.403 1.53-1.53a.824.824 0 00-1.166-1.165l-1.529 1.53-.402-1.208a.824.824 0 00-1.564.522l.468 1.407a2.667 2.667 0 00-.527-.011 2.653 2.653 0 00-1.487.619l1.261 1.261a.824.824 0 01-1.165 1.166l-1.204-1.205-1.228 1.386 1.126 1.125a.824.824 0 01-1.166 1.166l-1.055-1.056-1.616 1.822 1.365 1.364a.824.824 0 01-1.166 1.166l-1.294-1.295-1.473 1.66-.01.04a6.704 6.704 0 01-.187.682 7.467 7.467 0 01-.385.976c-.043.092-.093.187-.14.282-.067.13-.13.26-.205.393l.021.003a9.05 9.05 0 013.219.856l8.491-7.53a.704.704 0 01.068-.054 2.665 2.665 0 001.048-2.76l1.059.353a.824.824 0 00.52-1.562z"/></g><defs><clipPath id="clip0"><path fill="#fff" d="M0 0h46v46H0z"/></clipPath></defs></svg>